<?xml version="1.0" encoding="UTF-8"?>
<svg width="479.69" height="273.55" enable-background="new 0 0 519.209 334.771" version="1.0" viewBox="0 0 479.688 273.55301" xml:space="preserve" xmlns="http://www.w3.org/2000/svg" xmlns:cc="http://creativecommons.org/ns#" xmlns:dc="http://purl.org/dc/elements/1.1/" xmlns:rdf="http://www.w3.org/1999/02/22-rdf-syntax-ns#"><metadata><rdf:RDF><cc:Work rdf:about=""><dc:format>image/svg+xml</dc:format><dc:type rdf:resource="http://purl.org/dc/dcmitype/StillImage"/><dc:title/></cc:Work></rdf:RDF></metadata><defs><clipPath id="a"><path d="M 0,170.079 H 170.079 V 0 H 0 Z"/></clipPath></defs>
<g transform="matrix(4.1868 0 0 -4.1868 -52.759 392.19)"><g clip-path="url(#a)"><g transform="translate(26.505 72.217)"><path d="m0 0c5.363-0.212 10.939 1.693 10.939 7.764 0 4.164-3.247 6.987-7.693 6.987-5.576 0-8.328-5.011-8.186-10.093h-8.047c0.424 9.599 6.423 16.798 16.375 16.798 7.692 0 15.597-4.446 15.597-13.198 0-4.941-2.258-8.894-6.987-10.587v-0.142c5.576-1.129 8.964-5.999 8.964-12.351 0-9.317-8.047-15.104-17.504-15.104-11.435 0-17.151 6.917-17.362 17.221h8.046c-0.212-5.998 3.034-10.516 9.316-10.516 5.364 0 9.457 3.176 9.457 8.823 0 7.693-6.563 8.681-12.915 8.399z" fill="#fff"/></g><g transform="translate(67.924 45.961)"><path d="m0 0c9.457 0 12.775 7.976 12.775 15.527 0 7.553-3.318 15.529-12.775 15.529-8.47 0-11.928-7.976-11.928-15.529 0-7.551 3.458-15.527 11.928-15.527m17.222-3.399h-4.094v7.634h-0.142c-1.905-4.729-7.693-7.975-12.986-7.975-11.081 0-16.374 8.963-16.374 19.267 0 10.305 5.293 19.269 16.374 19.269 5.435 0 10.728-2.752 12.634-7.976h0.141v20.892h4.447z" fill="#fff"/></g><g transform="translate(92.378 93.673)"><path d="m0 0h34.795v-7.622h-25.973v-13.199h22.797v-7.199h-22.797v-23.156h-8.822z" fill="#fff"/></g><g transform="translate(14.162 29.804)"><path d="m0 0h1.517c2.416 0 2.933 1.381 2.933 3.144 0 1.762-0.517 3.143-2.933 3.143h-1.517zm-1.542 7.545h3.65c2.712 0 3.883-1.973 3.883-4.401 0-2.429-1.171-4.402-3.883-4.402h-3.65z" fill="#fff"/></g><g transform="translate(21.403 37.348)"><path d="m0 0h6.337v-1.331h-4.796v-2.306h4.438v-1.258h-4.438v-2.576h4.882v-1.332h-6.423z" fill="#fff"/></g><g transform="translate(30.061 31.48)"><path d="m0 0c0-1.356 0.998-1.887 2.231-1.887 1.357 0 1.862 0.666 1.862 1.332 0 0.678-0.37 0.95-0.728 1.085-0.616 0.235-1.418 0.395-2.626 0.727-1.504 0.407-1.948 1.319-1.948 2.232 0 1.763 1.628 2.589 3.219 2.589 1.837 0 3.378-0.974 3.378-2.811h-1.541c-0.075 1.134-0.839 1.553-1.9 1.553-0.715 0-1.614-0.258-1.614-1.146 0-0.616 0.419-0.962 1.048-1.134 0.136-0.037 2.083-0.543 2.539-0.679 1.159-0.344 1.714-1.331 1.714-2.244 0-1.972-1.75-2.762-3.501-2.762-2.01 0-3.637 0.962-3.674 3.145z" fill="#fff"/></g><g transform="translate(38.731 32.048)"><path d="m0 0h2.688l-1.319 3.784h-0.037zm0.543 5.301h1.64l3.39-8.803h-1.652l-0.826 2.33h-3.514l-0.826-2.33h-1.59z" fill="#fff"/></g><g transform="translate(46.564 33.342)"><path d="m0 0h2.527c0.974 0 1.504 0.481 1.504 1.405 0 1.122-0.727 1.344-1.528 1.344h-2.503zm-1.542 4.007h4.205c1.923 0 2.909-0.888 2.909-2.379 0-1.69-1.171-2.121-1.455-2.22v-0.024c0.53-0.074 1.308-0.469 1.308-1.862 0-1.023 0.147-1.96 0.48-2.318h-1.652c-0.234 0.382-0.234 0.863-0.234 1.295 0 1.615-0.332 2.33-1.75 2.33h-2.269v-3.625h-1.542z" fill="#fff"/></g><g transform="translate(55.124 33.342)"><path d="m0 0h2.527c0.974 0 1.504 0.481 1.504 1.405 0 1.122-0.727 1.344-1.529 1.344h-2.502zm-1.541 4.007h4.204c1.923 0 2.909-0.888 2.909-2.379 0-1.69-1.171-2.121-1.455-2.22v-0.024c0.53-0.074 1.308-0.469 1.308-1.862 0-1.023 0.147-1.96 0.48-2.318h-1.652c-0.234 0.382-0.234 0.863-0.234 1.295 0 1.615-0.333 2.33-1.75 2.33h-2.269v-3.625h-1.541z" fill="#fff"/></g><g transform="translate(63.215 32.947)"><path d="m0 0c0-1.688 0.789-3.354 2.676-3.354 1.886 0 2.675 1.666 2.675 3.354 0 1.689-0.789 3.354-2.675 3.354-1.887 0-2.676-1.665-2.676-3.354m6.892 0c0-2.515-1.579-4.611-4.216-4.611-2.639 0-4.217 2.096-4.217 4.611 0 2.516 1.578 4.611 4.217 4.611 2.637 0 4.216-2.095 4.216-4.611" fill="#fff"/></g><g transform="translate(71.393 37.348)"><path d="m0 0h1.542v-7.471h4.476v-1.332h-6.018z" fill="#fff"/></g><g transform="translate(78.35 37.348)"><path d="m0 0h1.541v-7.471h4.475v-1.332h-6.016z" fill="#fff"/></g><g transform="translate(86.379 32.947)"><path d="m0 0c0-1.688 0.789-3.354 2.676-3.354 1.886 0 2.675 1.666 2.675 3.354 0 1.689-0.789 3.354-2.675 3.354-1.887 0-2.676-1.665-2.676-3.354m6.892 0c0-2.515-1.579-4.611-4.216-4.611-2.639 0-4.217 2.096-4.217 4.611 0 2.516 1.578 4.611 4.217 4.611 2.637 0 4.216-2.095 4.216-4.611" fill="#fff"/></g><g transform="translate(95.569 31.48)"><path d="m0 0c0-1.356 0.998-1.887 2.231-1.887 1.357 0 1.862 0.666 1.862 1.332 0 0.678-0.37 0.95-0.728 1.085-0.616 0.235-1.418 0.395-2.626 0.727-1.504 0.407-1.948 1.319-1.948 2.232 0 1.763 1.628 2.589 3.219 2.589 1.837 0 3.378-0.974 3.378-2.811h-1.541c-0.075 1.134-0.839 1.553-1.9 1.553-0.715 0-1.614-0.258-1.614-1.146 0-0.616 0.419-0.962 1.048-1.134 0.136-0.037 2.083-0.543 2.539-0.679 1.159-0.344 1.714-1.331 1.714-2.244 0-1.972-1.75-2.762-3.501-2.762-2.01 0-3.637 0.962-3.674 3.145z" fill="#fff"/></g></g></g></svg>

