<svg width="172" height="34" viewBox="0 0 172 34" fill="none" xmlns="http://www.w3.org/2000/svg">
<g clip-path="url(#clip0_729_3519)">
<path d="M170.531 10.0078L170.502 9.97871C170.072 9.54844 169.561 9.20859 169 8.97869C168.44 8.74878 167.84 8.63336 167.235 8.63907C166.253 8.63907 163.842 8.97464 162.706 12.0978L162.646 12.2722C162.609 12.3734 162.542 12.4606 162.455 12.5222C162.367 12.5838 162.263 12.6168 162.157 12.6168C162.05 12.6168 161.946 12.5838 161.859 12.5222C161.771 12.4606 161.705 12.3734 161.667 12.2722L161.587 12.045C160.804 9.87566 159.167 8.63378 157.066 8.63378C156.449 8.62532 155.836 8.74049 155.264 8.97267C154.691 9.20485 154.169 9.54946 153.728 9.98664L153.686 10.0263C153.603 10.1121 153.493 10.1665 153.375 10.1805C153.256 10.1944 153.137 10.167 153.036 10.1029C151.559 9.12525 149.682 8.63114 147.44 8.63114C145.514 8.60668 143.6 8.93983 141.792 9.61408L141.573 9.7092C141.494 9.74348 141.408 9.75591 141.322 9.74524C141.237 9.73456 141.156 9.70115 141.088 9.64842C140.234 8.96436 139.172 8.6036 138.084 8.6285C137.339 8.63099 136.607 8.81978 135.951 9.17809C135.873 9.21997 135.786 9.24187 135.698 9.24187C135.61 9.24187 135.523 9.21997 135.445 9.17809C134.758 8.81104 133.993 8.62135 133.216 8.62585C132.583 8.6197 131.956 8.74449 131.373 8.99258C130.789 9.24066 130.262 9.60681 129.823 10.0686C129.631 10.2714 129.456 10.4907 129.301 10.7238C129.258 10.7833 129.204 10.833 129.141 10.8698C129.078 10.9066 129.008 10.9298 128.936 10.9377C128.864 10.9457 128.791 10.9383 128.721 10.916C128.652 10.8938 128.588 10.8571 128.534 10.8084C126.903 9.30866 124.773 8.48844 122.57 8.51224C121.316 8.50177 120.076 8.79053 118.953 9.35513C118.874 9.39323 118.787 9.41077 118.7 9.40616C118.613 9.40154 118.528 9.37491 118.454 9.32871C117.706 8.86227 116.843 8.61868 115.964 8.62585C115.38 8.61613 114.798 8.69268 114.236 8.85309C114.108 8.89375 113.968 8.88234 113.848 8.82126C113.727 8.76017 113.634 8.65416 113.589 8.52545C113.225 7.50315 112.531 6.63533 111.619 6.06282C109.388 4.61374 106.786 3.85776 104.136 3.88821C101.526 3.88821 99.3099 4.6624 97.5717 6.18965C96.3275 7.26785 95.4455 8.71118 95.0478 10.3196C95.0253 10.4014 94.9836 10.4765 94.9263 10.5386C94.869 10.6007 94.7978 10.6478 94.7187 10.6761C94.6395 10.7043 94.5548 10.7129 94.4717 10.701C94.3886 10.689 94.3096 10.657 94.2414 10.6076C92.3926 9.20235 90.1322 8.46465 87.8208 8.51224C85.713 8.47589 83.6435 9.08464 81.8831 10.2588C81.7779 10.3267 81.6521 10.3541 81.5286 10.3362C81.405 10.3183 81.2919 10.2561 81.2098 10.161L81.1471 10.0897L81.1132 10.0527C80.6706 9.5856 80.1363 9.21736 79.5448 8.97164C78.9533 8.72592 78.3176 8.60813 77.6785 8.62585C76.9338 8.62834 76.2013 8.81714 75.5461 9.17545C75.4681 9.21733 75.3812 9.23922 75.2929 9.23922C75.2047 9.23922 75.1178 9.21733 75.0398 9.17545C74.353 8.8084 73.5874 8.61871 72.8109 8.62321C71.6198 8.61006 70.4693 9.06136 69.598 9.88359C69.5504 9.92595 69.4891 9.94931 69.4257 9.94931C69.3623 9.94931 69.3011 9.92595 69.2535 9.88359C68.492 9.18099 67.5248 8.7492 66.4988 8.65382C65.4728 8.55844 64.4441 8.80468 63.5689 9.35513C63.4942 9.40357 63.4084 9.43189 63.3198 9.43744C63.2312 9.44299 63.1427 9.42557 63.0626 9.38684C61.8883 8.81037 60.5989 8.51475 59.2938 8.5228C58.0902 8.50547 56.8955 8.73536 55.7821 9.1986C54.6687 9.66183 53.6596 10.3488 52.8158 11.218C52.2828 11.7502 51.8197 12.3496 51.4378 13.0015C51.3887 13.0843 51.3182 13.152 51.2338 13.1971C51.1494 13.2422 51.0544 13.263 50.9592 13.2572C50.864 13.2515 50.7721 13.2195 50.6936 13.1646C50.6151 13.1097 50.5529 13.0341 50.5138 12.946L48.0787 7.24129C47.1653 5.10103 45.3826 3.875 43.185 3.875H42.9397C40.7264 3.875 38.9308 5.10103 38.0199 7.24129L31.3906 22.7648C31.0949 23.3995 30.934 24.0899 30.9182 24.7914C30.9071 26.028 31.3757 27.2196 32.2231 28.1102C32.6483 28.5707 33.1636 28.9365 33.736 29.1844C34.3085 29.4323 34.9256 29.5569 35.5483 29.5502C37.5423 29.5502 39.1526 28.4484 39.9669 26.5169L40.4759 25.2776C40.5154 25.1816 40.5821 25.0996 40.6676 25.0417C40.753 24.9839 40.8534 24.9529 40.9561 24.9526H45.0381C45.1409 24.9529 45.2413 24.9839 45.3267 25.0417C45.4121 25.0996 45.4788 25.1816 45.5184 25.2776L45.9777 26.39C46.8181 28.3982 48.4546 29.5608 50.4721 29.5608H50.493C50.6055 29.559 50.7156 29.594 50.8068 29.6607C50.898 29.7273 50.9656 29.8221 50.9993 29.9307C51.2031 30.5672 51.5469 31.1486 52.0049 31.631C52.4629 32.1135 53.0231 32.4843 53.6432 32.7157C55.659 33.5443 57.8151 33.967 59.9907 33.9602C63.6133 33.9602 66.3747 33.0011 68.2016 31.1065C68.7713 30.5119 69.2483 29.833 69.6163 29.0931C69.6485 29.0294 69.6932 28.9729 69.7477 28.9272C69.8022 28.8815 69.8653 28.8475 69.9331 28.8272C70.001 28.807 70.0722 28.8009 70.1425 28.8093C70.2127 28.8178 70.2806 28.8406 70.3418 28.8764C71.2611 29.4316 72.3378 29.6586 73.3996 29.5211C74.4613 29.3836 75.4469 28.8896 76.1986 28.1181C76.6389 27.6652 76.9863 27.1284 77.2205 26.5389C77.4548 25.9493 77.5714 25.3186 77.5636 24.6831C77.5638 24.567 77.6018 24.4541 77.6717 24.362C77.7417 24.2699 77.8396 24.2037 77.9504 24.1736C78.0613 24.1435 78.1788 24.1513 78.2849 24.1956C78.3909 24.2399 78.4796 24.3184 78.5371 24.4189C79.0049 25.234 79.5771 25.983 80.2388 26.6463C82.2511 28.6836 84.7802 29.7141 87.7582 29.7141C90.6422 29.7141 93.1165 28.7417 95.1131 26.8075C95.2316 26.6839 95.3911 26.6093 95.5609 26.5981C95.7306 26.5869 95.8984 26.6398 96.0318 26.7467C98.5575 28.6543 101.629 29.6749 104.78 29.6533C106.955 29.6533 108.844 29.175 110.413 28.2317C110.492 28.1856 110.581 28.1612 110.672 28.1609C110.763 28.1606 110.853 28.1846 110.932 28.2302C111.011 28.2759 111.077 28.3418 111.124 28.4214C111.17 28.5009 111.195 28.5913 111.196 28.6836V29.1803C111.188 29.8158 111.304 30.4465 111.539 31.0361C111.773 31.6257 112.12 32.1625 112.561 32.6153C113.004 33.071 113.532 33.4329 114.114 33.6799C114.697 33.927 115.322 34.0542 115.954 34.0542C116.585 34.0542 117.211 33.927 117.793 33.6799C118.376 33.4329 118.904 33.071 119.347 32.6153C120.04 31.9056 120.497 30.9935 120.652 30.0073C120.672 29.8732 120.743 29.7522 120.85 29.6696C120.956 29.5869 121.09 29.5489 121.223 29.5634C121.66 29.6293 122.102 29.662 122.544 29.6612C124.754 29.6925 126.894 28.8738 128.531 27.3703C128.586 27.3221 128.649 27.2858 128.718 27.2638C128.787 27.2417 128.86 27.2345 128.932 27.2424C129.004 27.2504 129.073 27.2734 129.136 27.3099C129.199 27.3465 129.253 27.3959 129.296 27.4549C129.451 27.6844 129.626 27.9001 129.818 28.0996C130.261 28.5553 130.789 28.9172 131.372 29.1642C131.954 29.4113 132.579 29.5385 133.211 29.5385C133.842 29.5385 134.468 29.4113 135.05 29.1642C135.633 28.9172 136.161 28.5553 136.604 28.0996C137.298 27.3892 137.755 26.4761 137.909 25.489C137.966 25.1799 138.313 25.1032 138.486 25.489C138.888 26.373 139.478 27.1562 140.213 27.7825C141.662 29.0271 143.45 29.6586 145.533 29.6586C146.764 29.6724 147.984 29.4267 149.116 28.9372C149.191 28.9032 149.273 28.8877 149.355 28.8918C149.437 28.896 149.517 28.9197 149.588 28.961C150.305 29.3514 151.108 29.5523 151.922 29.5449C152.035 29.5449 152.147 29.5449 152.258 29.5449C152.387 29.535 152.515 29.5738 152.617 29.6539C152.72 29.7339 152.789 29.8495 152.812 29.9783C153.102 31.5637 154.177 32.824 155.803 33.4133C156.826 33.7903 157.906 33.9809 158.995 33.9761C160.864 33.9761 162.435 33.4476 163.659 32.3722C164.729 31.4421 165.629 30.0258 166.412 28.0441L171.478 15.4271C171.752 14.7673 171.891 14.058 171.885 13.3424C171.894 12.7228 171.778 12.1079 171.545 11.5349C171.312 10.9618 170.967 10.4423 170.531 10.0078Z" fill="white"/>
<path d="M110.473 16.6104C109.469 15.712 107.895 14.9669 105.799 14.3961C104.144 13.9522 103.051 13.5744 102.55 13.2705C102.34 13.1504 102.168 12.9741 102.051 12.761C101.935 12.5479 101.879 12.3063 101.889 12.063V12.0075C101.886 11.8062 101.931 11.6072 102.022 11.4282C102.114 11.2493 102.247 11.096 102.411 10.9823C102.903 10.6678 103.48 10.5189 104.061 10.5569C105.22 10.5569 106.519 10.9902 107.923 11.8437C108.283 12.0679 108.696 12.1885 109.119 12.1925C109.41 12.1961 109.699 12.14 109.968 12.0273C110.237 11.9147 110.481 11.7479 110.685 11.5372C110.896 11.3271 111.063 11.0755 111.174 10.7979C111.286 10.5203 111.341 10.2225 111.335 9.92273C111.353 9.53284 111.266 9.14524 111.082 8.80227C110.898 8.4593 110.624 8.17416 110.291 7.978C108.449 6.78048 106.299 6.1575 104.11 6.18652C102.095 6.18652 100.422 6.75989 99.1383 7.88816C97.8542 9.01642 97.2121 10.5384 97.2121 12.3986V12.4541C97.1903 13.3237 97.3412 14.189 97.6558 14.9986C97.9594 15.7146 98.4504 16.3331 99.0756 16.7874C99.6852 17.2425 100.349 17.618 101.051 17.9051C101.922 18.2425 102.813 18.524 103.719 18.748C105.225 19.1523 106.23 19.5248 106.71 19.8525C106.907 19.9697 107.071 20.1373 107.184 20.3386C107.297 20.5398 107.356 20.7677 107.354 20.9992V21.0547C107.361 21.2836 107.308 21.5101 107.199 21.7112C107.091 21.9122 106.932 22.0805 106.739 22.1989C106.173 22.5286 105.524 22.6847 104.872 22.648C103.252 22.648 101.667 22.0694 100.159 20.9226C99.7671 20.633 99.2944 20.4775 98.8094 20.4787C98.5182 20.475 98.2292 20.5312 97.9601 20.6439C97.6909 20.7565 97.4471 20.9232 97.2434 21.134C97.0328 21.3444 96.8668 21.5961 96.7555 21.8737C96.6442 22.1513 96.59 22.4489 96.5962 22.7485C96.5792 23.1082 96.6524 23.4664 96.8089 23.7898C96.9654 24.1132 97.2002 24.3912 97.4914 24.5981C99.6022 26.1887 102.168 27.0385 104.799 27.0184C106.955 27.0184 108.714 26.453 110.04 25.3353C111.366 24.2176 112.052 22.6243 112.052 20.632V20.5765C112.032 18.8669 111.51 17.5326 110.473 16.6104Z" fill="#0087CE"/>
<path d="M122.563 10.8054C121.739 10.7924 120.923 10.9662 120.175 11.3142C119.427 11.6621 118.765 12.1754 118.238 12.8162C118.151 12.3631 117.933 11.9465 117.611 11.6192C117.395 11.3973 117.137 11.2211 116.852 11.1008C116.568 10.9806 116.262 10.9186 115.954 10.9186C115.646 10.9186 115.341 10.9806 115.056 11.1008C114.772 11.2211 114.514 11.3973 114.297 11.6192C114.078 11.8446 113.906 12.1118 113.79 12.4054C113.675 12.6989 113.618 13.0128 113.623 13.3288V29.0055C113.618 29.3215 113.675 29.6354 113.79 29.9289C113.906 30.2225 114.078 30.4897 114.297 30.7151C114.514 30.937 114.772 31.1132 115.056 31.2335C115.341 31.3537 115.646 31.4156 115.954 31.4156C116.262 31.4156 116.568 31.3537 116.852 31.2335C117.137 31.1132 117.395 30.937 117.611 30.7151C117.83 30.4897 118.003 30.2225 118.118 29.9289C118.234 29.6354 118.29 29.3215 118.285 29.0055V25.1953C118.836 25.7802 119.499 26.244 120.235 26.5577C120.97 26.8713 121.762 27.0282 122.56 27.0185C123.481 27.0265 124.392 26.8357 125.234 26.4589C126.076 26.0821 126.829 25.528 127.443 24.8333C128.78 23.388 129.458 21.3984 129.458 18.941V18.8855C129.458 16.4203 128.774 14.4359 127.428 12.9905C126.815 12.2991 126.065 11.7468 125.226 11.3702C124.388 10.9935 123.48 10.801 122.563 10.8054ZM118.233 18.941V18.8855C118.192 17.8567 118.531 16.8494 119.185 16.0609C119.467 15.7164 119.821 15.4405 120.223 15.2534C120.624 15.0663 121.061 14.973 121.503 14.9802C121.946 14.9738 122.386 15.0675 122.789 15.2544C123.192 15.4414 123.549 15.7169 123.834 16.0609C124.495 16.8458 124.84 17.8545 124.799 18.8855V18.941C124.799 20.1063 124.476 21.0548 123.834 21.7788C123.546 22.118 123.187 22.3886 122.784 22.5713C122.38 22.754 121.942 22.8443 121.5 22.8358C121.059 22.8435 120.621 22.7506 120.22 22.564C119.819 22.3774 119.464 22.1018 119.183 21.7577C118.531 20.9703 118.192 19.9651 118.233 18.9384V18.941Z" fill="#0087CE"/>
<path d="M139.754 11.5822C139.537 11.3575 139.276 11.1822 138.987 11.0678C138.698 10.9535 138.388 10.9027 138.078 10.919C137.737 10.9314 137.403 11.0173 137.097 11.1708C136.792 11.3244 136.522 11.5421 136.306 11.8094C136.006 12.1474 135.743 12.5178 135.523 12.9139C135.45 12.4251 135.225 11.9726 134.881 11.6218C134.664 11.3999 134.406 11.2237 134.122 11.1034C133.837 10.9832 133.532 10.9213 133.224 10.9213C132.916 10.9213 132.61 10.9832 132.326 11.1034C132.041 11.2237 131.783 11.3999 131.566 11.6218C131.348 11.8472 131.175 12.1145 131.06 12.408C130.944 12.7015 130.887 13.0154 130.893 13.3314V24.4978C130.887 24.8138 130.943 25.128 131.059 25.4217C131.174 25.7153 131.347 25.9825 131.566 26.2073C131.783 26.4293 132.041 26.6054 132.326 26.7257C132.61 26.8459 132.916 26.9079 133.224 26.9079C133.532 26.9079 133.837 26.8459 134.122 26.7257C134.406 26.6054 134.664 26.4293 134.881 26.2073C135.1 25.982 135.272 25.7147 135.388 25.4212C135.503 25.1276 135.56 24.8137 135.554 24.4978V20.5C135.554 17.6648 136.554 16.0424 138.616 15.543C139.102 15.4292 139.541 15.1629 139.869 14.782C140.212 14.3608 140.389 13.8265 140.367 13.2812C140.39 12.6555 140.17 12.0457 139.754 11.5822Z" fill="#0087CE"/>
<path d="M147.448 10.9157C145.83 10.8902 144.221 11.1642 142.7 11.7242C142.327 11.8742 142.007 12.1325 141.779 12.4667C141.541 12.8083 141.415 13.2168 141.419 13.6346C141.417 13.8987 141.467 14.1606 141.565 14.4051C141.664 14.6497 141.809 14.872 141.993 15.0594C142.177 15.2468 142.396 15.3955 142.637 15.497C142.878 15.5985 143.136 15.6507 143.397 15.6507C143.628 15.647 143.857 15.6051 144.075 15.5265C144.974 15.2457 145.91 15.1075 146.85 15.1169C148.729 15.1169 149.666 15.8938 149.721 17.495C148.655 17.1493 147.543 16.9711 146.424 16.9666C144.579 16.9666 143.086 17.392 141.987 18.2322C140.889 19.0725 140.291 20.3778 140.291 22.0556V22.1111C140.291 23.6331 140.813 24.8459 141.813 25.7126C142.866 26.5888 144.198 27.0471 145.561 27.002C147.26 27.002 148.677 26.4735 149.781 25.3981C149.888 25.7366 150.08 26.0408 150.339 26.2807C150.775 26.6917 151.354 26.9112 151.95 26.891C152.25 26.8962 152.548 26.8394 152.826 26.724C153.104 26.6086 153.355 26.4371 153.565 26.2199C153.781 26.0039 153.952 25.7456 154.066 25.4607C154.18 25.1759 154.235 24.8704 154.228 24.5632V17.6932C154.228 15.508 153.672 13.8222 152.576 12.6728C151.48 11.5234 149.703 10.9157 147.448 10.9157ZM144.801 21.8997C144.788 21.6418 144.841 21.3848 144.954 21.1535C145.067 20.9221 145.238 20.7241 145.448 20.5786C146.032 20.2217 146.709 20.0514 147.39 20.0898C148.204 20.0782 149.012 20.2374 149.763 20.5574V21.1467C149.77 21.4732 149.701 21.7969 149.562 22.0916C149.423 22.3863 149.217 22.6437 148.961 22.843C148.34 23.3236 147.571 23.5669 146.79 23.53C146.266 23.5549 145.748 23.4015 145.32 23.094C145.15 22.9627 145.013 22.7914 144.922 22.5949C144.831 22.3984 144.789 22.1826 144.798 21.9658L144.801 21.8997Z" fill="#0087CE"/>
<path d="M168.814 11.558C168.608 11.3512 168.363 11.1881 168.094 11.0783C167.825 10.9685 167.537 10.9142 167.248 10.9186C166.204 10.9186 165.454 11.5263 165.013 12.7339L162.2 20.7929L159.298 12.7021C158.877 11.5184 158.126 10.9186 157.063 10.9186C156.761 10.9114 156.46 10.9657 156.178 11.0783C155.897 11.1908 155.64 11.3593 155.424 11.5739C155.205 11.791 155.033 12.0517 154.919 12.3396C154.804 12.6275 154.75 12.9362 154.759 13.2465C154.771 13.6219 154.852 13.9919 154.996 14.3377L159.929 26.1911L159.838 26.4157C159.735 26.6554 159.57 26.8626 159.36 27.0155C159.126 27.1279 158.867 27.1788 158.609 27.1635C158.341 27.1514 158.077 27.0989 157.826 27.0076C157.579 26.9227 157.321 26.8799 157.061 26.8807C156.813 26.8796 156.567 26.9296 156.339 27.0277C156.11 27.1258 155.904 27.27 155.732 27.4515C155.546 27.6405 155.399 27.8663 155.302 28.1149C155.204 28.3634 155.158 28.6295 155.166 28.8968C155.166 29.8692 155.688 30.5694 156.646 30.9261C157.399 31.2028 158.194 31.3423 158.995 31.3383C160.268 31.3383 161.305 30.9974 162.077 30.3289C162.85 29.6604 163.534 28.5322 164.165 26.9415L169.247 14.2796C169.391 13.9245 169.463 13.5433 169.458 13.1593C169.466 12.8618 169.412 12.5659 169.301 12.2904C169.19 12.0148 169.024 11.7654 168.814 11.558Z" fill="#0087CE"/>
<path d="M20.8073 7.15121C19.471 5.62925 17.5814 3.65281 16.232 2.2656C15.8751 1.89718 15.4495 1.60409 14.98 1.40329C14.5104 1.20248 14.0062 1.09795 13.4965 1.09574C12.9867 1.09353 12.4816 1.19368 12.0104 1.3904C11.5391 1.58713 11.1111 1.87651 10.7511 2.24182C9.38346 3.63695 7.45991 5.62396 6.11839 7.17763C2.43571 11.4053 0.898438 13.9366 0.898438 18.6479C0.898438 24.7252 5.71644 31.286 13.502 31.286C20.9978 31.286 26.0299 24.778 26.0299 18.6981C26.0325 13.5192 23.6652 10.4039 20.8073 7.15121Z" fill="white"/>
<path d="M14.6624 29.3599C15.053 29.3599 15.3697 29.0393 15.3697 28.6438C15.3697 28.2483 15.053 27.9277 14.6624 27.9277C14.2717 27.9277 13.9551 28.2483 13.9551 28.6438C13.9551 29.0393 14.2717 29.3599 14.6624 29.3599Z" fill="#0087CE"/>
<path d="M12.3499 29.3599C12.7405 29.3599 13.0572 29.0393 13.0572 28.6438C13.0572 28.2483 12.7405 27.9277 12.3499 27.9277C11.9592 27.9277 11.6426 28.2483 11.6426 28.6438C11.6426 29.0393 11.9592 29.3599 12.3499 29.3599Z" fill="#0087CE"/>
<path d="M9.93815 28.8517C10.261 28.8517 10.5228 28.5867 10.5228 28.2598C10.5228 27.933 10.261 27.668 9.93815 27.668C9.61526 27.668 9.35352 27.933 9.35352 28.2598C9.35352 28.5867 9.61526 28.8517 9.93815 28.8517Z" fill="#0087CE"/>
<path d="M16.9088 28.8517C17.2317 28.8517 17.4935 28.5867 17.4935 28.2598C17.4935 27.933 17.2317 27.668 16.9088 27.668C16.586 27.668 16.3242 27.933 16.3242 28.2598C16.3242 28.5867 16.586 28.8517 16.9088 28.8517Z" fill="#0087CE"/>
<path d="M23.8026 19.3664C23.8756 19.3616 23.9489 19.3696 24.0192 19.3902C24.0308 19.3938 24.043 19.3947 24.0549 19.3929C24.0669 19.3911 24.0783 19.3866 24.0883 19.3798C24.0983 19.3729 24.1067 19.3639 24.1128 19.3533C24.1189 19.3428 24.1226 19.331 24.1236 19.3188C24.1358 19.1339 24.1419 18.9498 24.1419 18.7666C24.1419 14.2218 22.0383 11.4738 19.397 8.46161C18.0789 6.93172 16.1658 4.93414 14.8843 3.61034C14.7023 3.4238 14.4854 3.2757 14.2464 3.17462C14.0074 3.07353 13.7509 3.02148 13.4919 3.02148C13.2329 3.02148 12.9764 3.07353 12.7374 3.17462C12.4984 3.2757 12.2816 3.4238 12.0995 3.61034C10.7945 4.93149 8.86051 6.94229 7.53726 8.47218C4.15995 12.3722 2.78711 14.4993 2.78711 18.7296C2.78711 18.9198 2.7932 19.1127 2.80538 19.3083C2.80603 19.3193 2.80886 19.33 2.81372 19.3399C2.81858 19.3498 2.82535 19.3585 2.83364 19.3657C2.84193 19.3728 2.85155 19.3782 2.86194 19.3815C2.87233 19.3848 2.88328 19.386 2.89412 19.3849C3.00586 19.3719 3.11894 19.3912 3.22037 19.4404C3.33067 19.4911 3.42493 19.5718 3.49266 19.6734C3.56039 19.7751 3.59894 19.8938 3.60403 20.0164C3.60795 20.1705 3.55759 20.3211 3.46197 20.4411C3.36635 20.5612 3.23169 20.6429 3.08204 20.6717C3.07109 20.6733 3.06057 20.6771 3.05113 20.6829C3.0417 20.6888 3.03355 20.6965 3.02719 20.7057C3.02083 20.7148 3.0164 20.7252 3.01416 20.7362C3.01192 20.7472 3.01193 20.7585 3.01418 20.7694C3.09559 21.1766 3.19928 21.5788 3.32476 21.9743C3.331 21.9891 3.34137 22.0016 3.35459 22.0105C3.36782 22.0193 3.38331 22.024 3.39915 22.024C3.41499 22.024 3.43048 22.0193 3.4437 22.0105C3.45693 22.0016 3.4673 21.9891 3.47353 21.9743C3.53734 21.8323 3.64114 21.7125 3.7719 21.6299C3.90267 21.5474 4.0546 21.5057 4.20865 21.5102C4.3627 21.5146 4.51202 21.565 4.63791 21.655C4.7638 21.745 4.86066 21.8706 4.91635 22.0161C4.97203 22.1616 4.98407 22.3205 4.95095 22.4729C4.91784 22.6253 4.84104 22.7644 4.73018 22.8727C4.61932 22.9811 4.47933 23.054 4.32776 23.0822C4.17618 23.1104 4.01975 23.0927 3.87808 23.0313C3.86322 23.0252 3.84693 23.0238 3.83127 23.0272C3.81562 23.0305 3.8013 23.0385 3.79013 23.0501C3.77895 23.0617 3.77143 23.0764 3.7685 23.0923C3.76557 23.1082 3.76737 23.1247 3.77368 23.1396C3.96326 23.5618 4.17766 23.9721 4.41573 24.3683C4.42307 24.3797 4.43313 24.3891 4.44499 24.3956C4.45684 24.4021 4.47011 24.4056 4.48359 24.4056C4.49708 24.4056 4.51035 24.4021 4.5222 24.3956C4.53405 24.3891 4.54411 24.3797 4.55145 24.3683C4.62402 24.2649 4.71714 24.1781 4.82484 24.1133C4.93253 24.0486 5.05241 24.0074 5.17678 23.9923C5.30114 23.9773 5.42724 23.9888 5.54696 24.026C5.66668 24.0633 5.77738 24.1255 5.87195 24.2086C5.96651 24.2918 6.04285 24.394 6.09605 24.5088C6.14925 24.6236 6.17814 24.7484 6.18086 24.8752C6.18357 25.0019 6.16006 25.1279 6.11183 25.2449C6.0636 25.3619 5.99172 25.4674 5.90081 25.5547H5.91386C5.83341 25.6546 5.78259 25.7756 5.76733 25.9036C5.75207 26.0316 5.77297 26.1614 5.82762 26.2778C5.88227 26.3943 5.96843 26.4927 6.07609 26.5616C6.18375 26.6305 6.3085 26.667 6.43586 26.667C6.56321 26.667 6.68795 26.6305 6.79561 26.5616C6.90327 26.4927 6.98943 26.3943 7.04408 26.2778C7.09873 26.1614 7.11964 26.0316 7.10437 25.9036C7.08911 25.7756 7.0383 25.6546 6.95785 25.5547H6.97351C6.84412 25.4291 6.75478 25.2673 6.71701 25.0899C6.67924 24.9126 6.69477 24.7278 6.76158 24.5595C6.82839 24.3911 6.94342 24.2469 7.09189 24.1453C7.24036 24.0437 7.41547 23.9894 7.59468 23.9894C7.77388 23.9894 7.94899 24.0437 8.09746 24.1453C8.24593 24.2469 8.36097 24.3911 8.42778 24.5595C8.49459 24.7278 8.51011 24.9126 8.47234 25.0899C8.43457 25.2673 8.34524 25.4291 8.21585 25.5547C8.08023 25.6667 7.98218 25.8185 7.93515 25.9892C7.88812 26.1599 7.89441 26.3412 7.95317 26.5082C8.01192 26.6751 8.12026 26.8196 8.26331 26.9217C8.40637 27.0239 8.57715 27.0787 8.75221 27.0787C8.92727 27.0787 9.09803 27.0239 9.24109 26.9217C9.38415 26.8196 9.49249 26.6751 9.55124 26.5082C9.60999 26.3412 9.61629 26.1599 9.56926 25.9892C9.52223 25.8185 9.42418 25.6667 9.28855 25.5547C9.15844 25.4294 9.06839 25.2676 9.03003 25.0901C8.99166 24.9125 9.00675 24.7274 9.07334 24.5587C9.13993 24.3899 9.25496 24.2452 9.40358 24.1433C9.55221 24.0414 9.7276 23.9869 9.90712 23.9869C10.0866 23.9869 10.262 24.0414 10.4106 24.1433C10.5593 24.2452 10.6743 24.3899 10.7409 24.5587C10.8075 24.7274 10.8226 24.9125 10.7842 25.0901C10.7458 25.2676 10.6558 25.4294 10.5257 25.5547C10.3911 25.6673 10.294 25.8192 10.2479 25.9897C10.2017 26.1602 10.2087 26.341 10.2678 26.5073C10.3269 26.6737 10.4352 26.8175 10.5781 26.9192C10.7209 27.0209 10.8913 27.0754 11.0659 27.0754C11.2406 27.0754 11.4109 27.0209 11.5538 26.9192C11.6967 26.8175 11.805 26.6737 11.8641 26.5073C11.9232 26.341 11.9302 26.1602 11.884 25.9897C11.8379 25.8192 11.7408 25.6673 11.6062 25.5547C11.4757 25.4296 11.3853 25.2678 11.3467 25.0902C11.308 24.9125 11.3229 24.7272 11.3894 24.5583C11.4558 24.3893 11.5709 24.2444 11.7196 24.1423C11.8683 24.0402 12.0438 23.9856 12.2235 23.9856C12.4031 23.9856 12.5787 24.0402 12.7274 24.1423C12.8761 24.2444 12.9911 24.3893 13.0576 24.5583C13.1241 24.7272 13.1389 24.9125 13.1003 25.0902C13.0616 25.2678 12.9712 25.4296 12.8407 25.5547C12.7051 25.6667 12.6071 25.8185 12.56 25.9892C12.513 26.1599 12.5193 26.3412 12.578 26.5082C12.6368 26.6751 12.7451 26.8196 12.8882 26.9217C13.0312 27.0239 13.202 27.0787 13.3771 27.0787C13.5521 27.0787 13.7229 27.0239 13.866 26.9217C14.009 26.8196 14.1174 26.6751 14.1761 26.5082C14.2349 26.3412 14.2412 26.1599 14.1941 25.9892C14.1471 25.8185 14.0491 25.6667 13.9134 25.5547C13.7844 25.429 13.6954 25.2671 13.658 25.0899C13.6205 24.9126 13.6362 24.7281 13.7031 24.5599C13.7701 24.3918 13.8851 24.2477 14.0335 24.1463C14.1819 24.0449 14.3568 23.9907 14.5359 23.9907C14.715 23.9907 14.8899 24.0449 15.0383 24.1463C15.1867 24.2477 15.3018 24.3918 15.3687 24.5599C15.4356 24.7281 15.4513 24.9126 15.4139 25.0899C15.3764 25.2671 15.2874 25.429 15.1584 25.5547C15.0234 25.6671 14.9261 25.819 14.8796 25.9895C14.8332 26.1601 14.8399 26.341 14.8989 26.5076C14.9579 26.6742 15.0662 26.8182 15.2091 26.92C15.3521 27.0219 15.5226 27.0765 15.6973 27.0765C15.8721 27.0765 16.0426 27.0219 16.1855 26.92C16.3285 26.8182 16.4368 26.6742 16.4958 26.5076C16.5548 26.341 16.5615 26.1601 16.5151 25.9895C16.4686 25.819 16.3713 25.6671 16.2363 25.5547C16.1058 25.4296 16.0154 25.2678 15.9768 25.0902C15.9381 24.9125 15.953 24.7272 16.0194 24.5583C16.0859 24.3893 16.201 24.2444 16.3497 24.1423C16.4984 24.0402 16.6739 23.9856 16.8536 23.9856C17.0332 23.9856 17.2088 24.0402 17.3575 24.1423C17.5062 24.2444 17.6212 24.3893 17.6877 24.5583C17.7541 24.7272 17.769 24.9125 17.7304 25.0902C17.6917 25.2678 17.6013 25.4296 17.4708 25.5547C17.3362 25.6673 17.2392 25.8192 17.193 25.9897C17.1469 26.1602 17.1538 26.341 17.2129 26.5073C17.272 26.6737 17.3804 26.8175 17.5232 26.9192C17.6661 27.0209 17.8365 27.0754 18.0111 27.0754C18.1857 27.0754 18.3561 27.0209 18.4989 26.9192C18.6418 26.8175 18.7502 26.6737 18.8093 26.5073C18.8684 26.341 18.8753 26.1602 18.8292 25.9897C18.783 25.8192 18.686 25.6673 18.5513 25.5547C18.4233 25.4335 18.3332 25.277 18.2919 25.1046C18.2507 24.9321 18.2602 24.7512 18.3193 24.5842C18.3784 24.4172 18.4845 24.2713 18.6245 24.1646C18.7645 24.0579 18.9323 23.9949 19.1072 23.9836C19.2821 23.9723 19.4564 24.013 19.6088 24.1008C19.7611 24.1886 19.8846 24.3196 19.9643 24.4776C20.0439 24.6357 20.0762 24.8139 20.057 24.9902C20.0378 25.1666 19.968 25.3334 19.8563 25.4701C19.7711 25.5759 19.708 25.6982 19.671 25.8294C19.6559 25.8774 19.6471 25.9271 19.6449 25.9774C19.6463 26.1504 19.7125 26.3165 19.8303 26.4418C19.948 26.5672 20.1084 26.6426 20.279 26.6527C20.4497 26.6628 20.6177 26.6068 20.749 26.4961C20.8804 26.3855 20.9653 26.2284 20.9865 26.0567C20.9912 25.9973 20.9868 25.9376 20.9734 25.8797C20.9393 25.7234 20.8706 25.577 20.7724 25.4516C20.6962 25.3541 20.6405 25.2418 20.6089 25.1216C20.5773 25.0014 20.5703 24.876 20.5885 24.753C20.6067 24.63 20.6496 24.5121 20.7146 24.4065C20.7796 24.301 20.8653 24.2101 20.9664 24.1395C21.0675 24.0688 21.1819 24.0199 21.3024 23.9958C21.4229 23.9717 21.547 23.9729 21.667 23.9993C21.7871 24.0257 21.9005 24.0767 22.0003 24.1493C22.1 24.2218 22.184 24.3144 22.2471 24.4211C22.2544 24.4326 22.2645 24.442 22.2763 24.4485C22.2882 24.455 22.3014 24.4584 22.3149 24.4584C22.3284 24.4584 22.3417 24.455 22.3535 24.4485C22.3654 24.442 22.3754 24.4326 22.3828 24.4211C22.6413 24.0091 22.8741 23.5811 23.0797 23.1396C23.0868 23.1246 23.0892 23.1078 23.0867 23.0913C23.0841 23.0749 23.0767 23.0596 23.0653 23.0476C23.054 23.0355 23.0393 23.0273 23.0232 23.0239C23.0071 23.0205 22.9904 23.0221 22.9753 23.0286C22.8327 23.0868 22.6764 23.1012 22.5258 23.0701C22.3752 23.0389 22.237 22.9636 22.1284 22.8535C22.0198 22.7434 21.9456 22.6033 21.9151 22.4508C21.8846 22.2983 21.899 22.1401 21.9567 21.9959C22.0144 21.8516 22.1128 21.7278 22.2395 21.6398C22.3663 21.5517 22.5158 21.5034 22.6695 21.5008C22.8232 21.4983 22.9742 21.5415 23.1038 21.6253C23.2333 21.709 23.3357 21.8295 23.3981 21.9717C23.4043 21.9864 23.4147 21.999 23.4279 22.0078C23.4411 22.0167 23.4566 22.0214 23.4725 22.0214C23.4883 22.0214 23.5038 22.0167 23.517 22.0078C23.5302 21.999 23.5406 21.9864 23.5468 21.9717C23.6817 21.5718 23.7933 21.1641 23.8809 20.7509C23.8833 20.7389 23.8829 20.7266 23.8799 20.7147C23.8769 20.7029 23.8713 20.6919 23.8636 20.6825C23.8558 20.6731 23.8461 20.6656 23.8351 20.6605C23.8241 20.6555 23.8121 20.653 23.8 20.6532C23.6297 20.6584 23.4643 20.595 23.3403 20.4768C23.2162 20.3586 23.1436 20.1954 23.1384 20.023C23.1332 19.8506 23.1959 19.6832 23.3126 19.5576C23.4293 19.4319 23.5906 19.3584 23.7609 19.3532L23.8026 19.3664ZM20.4096 17.2948C20.5129 17.2948 20.6138 17.3258 20.6997 17.3839C20.7855 17.4419 20.8524 17.5245 20.8919 17.621C20.9314 17.7176 20.9418 17.8239 20.9216 17.9264C20.9015 18.0289 20.8518 18.123 20.7788 18.197C20.7058 18.2709 20.6127 18.3212 20.5115 18.3416C20.4102 18.362 20.3053 18.3515 20.2099 18.3115C20.1145 18.2715 20.033 18.2038 19.9756 18.1169C19.9183 18.03 19.8877 17.9278 19.8877 17.8233C19.8876 17.7523 19.9017 17.682 19.9291 17.6167C19.9564 17.5513 19.9965 17.4922 20.0469 17.4429C20.0974 17.3936 20.1571 17.3551 20.2225 17.3296C20.288 17.3042 20.3578 17.2923 20.4279 17.2948H20.4096ZM18.0894 17.2948C18.1926 17.2948 18.2935 17.3258 18.3794 17.3839C18.4652 17.4419 18.5321 17.5245 18.5716 17.621C18.6112 17.7176 18.6215 17.8239 18.6013 17.9264C18.5812 18.0289 18.5315 18.123 18.4585 18.197C18.3855 18.2709 18.2925 18.3212 18.1912 18.3416C18.09 18.362 17.985 18.3515 17.8896 18.3115C17.7942 18.2715 17.7127 18.2038 17.6554 18.1169C17.598 18.03 17.5674 17.9278 17.5674 17.8233C17.5674 17.7532 17.5811 17.6838 17.6079 17.6192C17.6346 17.5546 17.6737 17.4959 17.723 17.4468C17.7723 17.3976 17.8308 17.3588 17.895 17.3327C17.9593 17.3067 18.028 17.2938 18.0972 17.2948H18.0894ZM15.7691 17.2948C15.8724 17.2948 15.9733 17.3258 16.0591 17.3839C16.145 17.4419 16.2119 17.5245 16.2514 17.621C16.2909 17.7176 16.3012 17.8239 16.2811 17.9264C16.2609 18.0289 16.2112 18.123 16.1382 18.197C16.0652 18.2709 15.9722 18.3212 15.871 18.3416C15.7697 18.362 15.6647 18.3515 15.5694 18.3115C15.474 18.2715 15.3925 18.2038 15.3351 18.1169C15.2777 18.03 15.2471 17.9278 15.2471 17.8233C15.2471 17.7532 15.2609 17.6838 15.2876 17.6192C15.3143 17.5546 15.3535 17.4959 15.4028 17.4468C15.4521 17.3976 15.5105 17.3588 15.5748 17.3327C15.639 17.3067 15.7077 17.2938 15.7769 17.2948H15.7691ZM13.963 17.8233C13.963 17.9278 13.9324 18.03 13.875 18.1169C13.8177 18.2038 13.7362 18.2715 13.6408 18.3115C13.5454 18.3515 13.4404 18.362 13.3392 18.3416C13.2379 18.3212 13.1449 18.2709 13.0719 18.197C12.9989 18.123 12.9492 18.0289 12.9291 17.9264C12.9089 17.8239 12.9192 17.7176 12.9588 17.621C12.9983 17.5245 13.0652 17.4419 13.151 17.3839C13.2369 17.3258 13.3378 17.2948 13.441 17.2948C13.5096 17.2938 13.5777 17.3064 13.6414 17.332C13.7051 17.3576 13.7632 17.3956 13.8124 17.444C13.8616 17.4923 13.901 17.55 13.9281 17.6137C13.9553 17.6774 13.9698 17.746 13.9708 17.8154L13.963 17.8233ZM7.10401 12.3299C8.60063 10.1987 10.3153 8.2334 12.2195 6.46667C12.3926 6.30935 12.6203 6.22806 12.8526 6.2407C13.0848 6.25333 13.3026 6.35885 13.458 6.53405C13.6134 6.70925 13.6937 6.93976 13.6812 7.17489C13.6687 7.41002 13.5645 7.6305 13.3914 7.78782C11.5944 9.46419 9.97289 11.3236 8.55254 13.3367C8.42102 13.5311 8.21858 13.6647 7.98976 13.7081C7.76093 13.7514 7.52447 13.701 7.33238 13.5679C7.14029 13.4347 7.00832 13.2298 6.96549 12.9981C6.92266 12.7664 6.97249 12.527 7.10401 12.3326V12.3299ZM11.6532 17.818C11.6532 17.9225 11.6226 18.0247 11.5652 18.1116C11.5079 18.1985 11.4263 18.2662 11.3309 18.3062C11.2356 18.3462 11.1306 18.3567 11.0294 18.3363C10.9281 18.3159 10.8351 18.2656 10.7621 18.1917C10.6891 18.1178 10.6394 18.0236 10.6192 17.9211C10.5991 17.8186 10.6094 17.7123 10.6489 17.6158C10.6884 17.5192 10.7553 17.4367 10.8412 17.3786C10.927 17.3205 11.028 17.2895 11.1312 17.2895C11.2687 17.2902 11.4004 17.3458 11.4977 17.4443C11.595 17.5428 11.6499 17.6761 11.6506 17.8154L11.6532 17.818ZM9.33292 17.818C9.33292 17.9225 9.30231 18.0247 9.24495 18.1116C9.1876 18.1985 9.10607 18.2662 9.01069 18.3062C8.91531 18.3462 8.81035 18.3567 8.70909 18.3363C8.60784 18.3159 8.51482 18.2656 8.44182 18.1917C8.36882 18.1178 8.31911 18.0236 8.29897 17.9211C8.27882 17.8186 8.28916 17.7123 8.32867 17.6158C8.36818 17.5192 8.43508 17.4367 8.52092 17.3786C8.60676 17.3205 8.70768 17.2895 8.81093 17.2895C8.94846 17.2902 9.08017 17.3458 9.17743 17.4443C9.27468 17.5428 9.32963 17.6761 9.33032 17.8154L9.33292 17.818ZM6.49849 17.2895C6.60173 17.2895 6.70266 17.3205 6.7885 17.3786C6.87434 17.4367 6.94124 17.5192 6.98075 17.6158C7.02026 17.7123 7.0306 17.8186 7.01046 17.9211C6.99032 18.0236 6.9406 18.1178 6.8676 18.1917C6.7946 18.2656 6.70158 18.3159 6.60032 18.3363C6.49907 18.3567 6.39411 18.3462 6.29873 18.3062C6.20335 18.2662 6.12183 18.1985 6.06447 18.1116C6.00711 18.0247 5.9765 17.9225 5.9765 17.818C5.97787 17.6792 6.0331 17.5465 6.13029 17.4487C6.22747 17.3508 6.35879 17.2955 6.49588 17.2948L6.49849 17.2895ZM4.17822 18.3332C4.07498 18.3332 3.97406 18.3022 3.88822 18.2442C3.80237 18.1861 3.73547 18.1036 3.69596 18.007C3.65646 17.9105 3.64612 17.8042 3.66626 17.7017C3.6864 17.5992 3.73611 17.505 3.80912 17.4311C3.88212 17.3572 3.97513 17.3069 4.07639 17.2865C4.17765 17.2661 4.2826 17.2766 4.37798 17.3165C4.47337 17.3565 4.55489 17.4243 4.61225 17.5112C4.66961 17.5981 4.70022 17.7003 4.70022 17.8048C4.70091 17.8748 4.68783 17.9444 4.66175 18.0093C4.63566 18.0742 4.59709 18.1332 4.54827 18.1828C4.49945 18.2325 4.44136 18.2718 4.37739 18.2986C4.31341 18.3253 4.24483 18.3389 4.17562 18.3385L4.17822 18.3332ZM4.64019 20.0111C4.64123 19.8831 4.67956 19.7583 4.7504 19.6523C4.82123 19.5462 4.9214 19.4638 5.03835 19.4151C5.15531 19.3665 5.28383 19.354 5.40782 19.379C5.5318 19.404 5.64573 19.4656 5.73531 19.5559C5.82489 19.6462 5.88613 19.7613 5.91136 19.8867C5.93659 20.0121 5.92468 20.1423 5.87713 20.2609C5.82959 20.3795 5.74851 20.4812 5.64408 20.5534C5.53964 20.6255 5.41649 20.6648 5.29007 20.6664C5.20488 20.6678 5.12027 20.652 5.04116 20.62C4.96205 20.5879 4.89004 20.5403 4.82931 20.4798C4.76857 20.4193 4.72035 20.3472 4.68743 20.2676C4.65452 20.188 4.63757 20.1026 4.63758 20.0164L4.64019 20.0111ZM6.49849 23.0894C6.34363 23.0894 6.19225 23.0429 6.06348 22.9558C5.93472 22.8687 5.83436 22.7449 5.7751 22.6C5.71584 22.4552 5.70033 22.2958 5.73055 22.142C5.76076 21.9883 5.83533 21.847 5.94483 21.7362C6.05433 21.6253 6.19385 21.5498 6.34574 21.5192C6.49762 21.4886 6.65505 21.5043 6.79813 21.5643C6.9412 21.6243 7.06349 21.7259 7.14953 21.8563C7.23556 21.9867 7.28148 22.1399 7.28148 22.2967C7.28217 22.4015 7.26234 22.5053 7.22314 22.6023C7.18394 22.6992 7.12614 22.7874 7.05309 22.8616C6.98003 22.9358 6.89317 22.9946 6.79753 23.0346C6.70189 23.0746 6.59936 23.095 6.49588 23.0947L6.49849 23.0894ZM6.96045 20.0111C6.96045 19.8825 6.99811 19.7569 7.06866 19.65C7.13921 19.5431 7.23949 19.4598 7.35681 19.4106C7.47413 19.3614 7.60323 19.3485 7.72777 19.3736C7.85232 19.3987 7.96672 19.4606 8.05651 19.5515C8.1463 19.6424 8.20745 19.7582 8.23223 19.8843C8.257 20.0104 8.24429 20.1411 8.19569 20.2598C8.1471 20.3786 8.0648 20.4801 7.95922 20.5516C7.85363 20.623 7.72949 20.6611 7.60251 20.6611C7.43267 20.6618 7.26948 20.5944 7.14866 20.4735C7.02784 20.3527 6.95923 20.1883 6.95785 20.0164L6.96045 20.0111ZM8.81875 23.0894C8.66389 23.0894 8.51252 23.0429 8.38375 22.9558C8.25499 22.8687 8.15463 22.7449 8.09536 22.6C8.0361 22.4552 8.0206 22.2958 8.05081 22.142C8.08102 21.9883 8.1556 21.847 8.2651 21.7362C8.3746 21.6253 8.51412 21.5498 8.666 21.5192C8.81789 21.4886 8.97533 21.5043 9.1184 21.5643C9.26147 21.6243 9.38375 21.7259 9.46979 21.8563C9.55583 21.9867 9.60175 22.1399 9.60175 22.2967C9.60244 22.4015 9.58261 22.5053 9.54341 22.6023C9.50421 22.6992 9.4464 22.7874 9.37335 22.8616C9.3003 22.9358 9.21344 22.9946 9.1178 23.0346C9.02216 23.0746 8.91963 23.095 8.81615 23.0947L8.81875 23.0894ZM9.28073 20.0111C9.28073 19.8825 9.31838 19.7569 9.38893 19.65C9.45948 19.5431 9.55975 19.4598 9.67707 19.4106C9.79439 19.3614 9.92349 19.3485 10.048 19.3736C10.1726 19.3987 10.287 19.4606 10.3768 19.5515C10.4666 19.6424 10.5277 19.7582 10.5525 19.8843C10.5773 20.0104 10.5645 20.1411 10.516 20.2598C10.4674 20.3786 10.3851 20.4801 10.2795 20.5516C10.1739 20.623 10.0498 20.6611 9.92278 20.6611C9.75294 20.6618 9.58975 20.5944 9.46893 20.4735C9.34811 20.3527 9.27949 20.1883 9.27811 20.0164L9.28073 20.0111ZM11.139 23.0894C10.9842 23.0894 10.8328 23.0429 10.704 22.9558C10.5753 22.8687 10.4749 22.7449 10.4156 22.6C10.3564 22.4552 10.3409 22.2958 10.3711 22.142C10.4013 21.9883 10.4759 21.847 10.5854 21.7362C10.6949 21.6253 10.8344 21.5498 10.9863 21.5192C11.1382 21.4886 11.2956 21.5043 11.4387 21.5643C11.5817 21.6243 11.704 21.7259 11.7901 21.8563C11.8761 21.9867 11.922 22.1399 11.922 22.2967C11.9227 22.4015 11.9029 22.5053 11.8637 22.6023C11.8245 22.6992 11.7667 22.7874 11.6936 22.8616C11.6206 22.9358 11.5337 22.9946 11.4381 23.0346C11.3424 23.0746 11.2399 23.095 11.1364 23.0947L11.139 23.0894ZM11.601 20.0111C11.601 19.8825 11.6386 19.7569 11.7092 19.65C11.7797 19.5431 11.88 19.4598 11.9973 19.4106C12.1147 19.3614 12.2438 19.3485 12.3683 19.3736C12.4929 19.3987 12.6073 19.4606 12.697 19.5515C12.7868 19.6424 12.848 19.7582 12.8728 19.8843C12.8975 20.0104 12.8848 20.1411 12.8362 20.2598C12.7876 20.3786 12.7053 20.4801 12.5998 20.5516C12.4942 20.623 12.37 20.6611 12.243 20.6611C12.0732 20.6618 11.91 20.5944 11.7892 20.4735C11.6684 20.3527 11.5998 20.1883 11.5984 20.0164L11.601 20.0111ZM13.4593 23.0894C13.3044 23.0894 13.153 23.0429 13.0243 22.9558C12.8955 22.8687 12.7952 22.7449 12.7359 22.6C12.6766 22.4552 12.6611 22.2958 12.6913 22.142C12.7216 21.9883 12.7961 21.847 12.9056 21.7362C13.0151 21.6253 13.1546 21.5498 13.3065 21.5192C13.4584 21.4886 13.6159 21.5043 13.7589 21.5643C13.902 21.6243 14.0243 21.7259 14.1103 21.8563C14.1964 21.9867 14.2423 22.1399 14.2423 22.2967C14.243 22.4015 14.2231 22.5053 14.1839 22.6023C14.1447 22.6992 14.0869 22.7874 14.0139 22.8616C13.9408 22.9358 13.854 22.9946 13.7583 23.0346C13.6627 23.0746 13.5602 23.095 13.4567 23.0947L13.4593 23.0894ZM13.9213 20.0111C13.9213 19.8825 13.9589 19.7569 14.0295 19.65C14.1 19.5431 14.2003 19.4598 14.3176 19.4106C14.4349 19.3614 14.564 19.3485 14.6886 19.3736C14.8131 19.3987 14.9275 19.4606 15.0173 19.5515C15.1071 19.6424 15.1682 19.7582 15.193 19.8843C15.2178 20.0104 15.2051 20.1411 15.1565 20.2598C15.1079 20.3786 15.0256 20.4801 14.92 20.5516C14.8144 20.623 14.6903 20.6611 14.5633 20.6611C14.3935 20.6618 14.2303 20.5944 14.1095 20.4735C13.9886 20.3527 13.92 20.1883 13.9186 20.0164L13.9213 20.0111ZM15.7796 23.0894C15.6247 23.0894 15.4733 23.0429 15.3445 22.9558C15.2158 22.8687 15.1154 22.7449 15.0562 22.6C14.9969 22.4552 14.9814 22.2958 15.0116 22.142C15.0418 21.9883 15.1164 21.847 15.2259 21.7362C15.3354 21.6253 15.4749 21.5498 15.6268 21.5192C15.7787 21.4886 15.9361 21.5043 16.0792 21.5643C16.2223 21.6243 16.3446 21.7259 16.4306 21.8563C16.5166 21.9867 16.5625 22.1399 16.5625 22.2967C16.5632 22.4015 16.5434 22.5053 16.5042 22.6023C16.465 22.6992 16.4072 22.7874 16.3342 22.8616C16.2611 22.9358 16.1742 22.9946 16.0786 23.0346C15.983 23.0746 15.8804 23.095 15.7769 23.0947L15.7796 23.0894ZM16.2415 20.0111C16.2415 19.8825 16.2792 19.7569 16.3497 19.65C16.4203 19.5431 16.5206 19.4598 16.6379 19.4106C16.7552 19.3614 16.8843 19.3485 17.0088 19.3736C17.1334 19.3987 17.2478 19.4606 17.3376 19.5515C17.4274 19.6424 17.4885 19.7582 17.5133 19.8843C17.5381 20.0104 17.5254 20.1411 17.4768 20.2598C17.4282 20.3786 17.3459 20.4801 17.2403 20.5516C17.1347 20.623 17.0106 20.6611 16.8836 20.6611C16.7137 20.6618 16.5505 20.5944 16.4297 20.4735C16.3089 20.3527 16.2403 20.1883 16.2389 20.0164L16.2415 20.0111ZM18.0998 23.0894C17.945 23.0894 17.7936 23.0429 17.6648 22.9558C17.5361 22.8687 17.4357 22.7449 17.3764 22.6C17.3172 22.4552 17.3017 22.2958 17.3319 22.142C17.3621 21.9883 17.4367 21.847 17.5462 21.7362C17.6557 21.6253 17.7952 21.5498 17.9471 21.5192C18.099 21.4886 18.2564 21.5043 18.3995 21.5643C18.5425 21.6243 18.6648 21.7259 18.7509 21.8563C18.8369 21.9867 18.8828 22.1399 18.8828 22.2967C18.8835 22.4015 18.8637 22.5053 18.8245 22.6023C18.7853 22.6992 18.7275 22.7874 18.6544 22.8616C18.5814 22.9358 18.4945 22.9946 18.3989 23.0346C18.3032 23.0746 18.2007 23.095 18.0972 23.0947L18.0998 23.0894ZM18.5618 20.0111C18.5618 19.8825 18.5994 19.7569 18.67 19.65C18.7405 19.5431 18.8408 19.4598 18.9581 19.4106C19.0755 19.3614 19.2046 19.3485 19.3291 19.3736C19.4536 19.3987 19.568 19.4606 19.6578 19.5515C19.7476 19.6424 19.8088 19.7582 19.8336 19.8843C19.8583 20.0104 19.8456 20.1411 19.797 20.2598C19.7484 20.3786 19.6661 20.4801 19.5605 20.5516C19.455 20.623 19.3308 20.6611 19.2038 20.6611C19.034 20.6618 18.8708 20.5944 18.75 20.4735C18.6292 20.3527 18.5606 20.1883 18.5592 20.0164L18.5618 20.0111ZM20.4279 23.0947C20.2731 23.0947 20.1217 23.0482 19.9929 22.9611C19.8641 22.874 19.7638 22.7502 19.7045 22.6053C19.6453 22.4605 19.6298 22.3011 19.66 22.1473C19.6902 21.9936 19.7648 21.8523 19.8743 21.7415C19.9838 21.6306 20.1233 21.5551 20.2752 21.5245C20.4271 21.4939 20.5845 21.5096 20.7276 21.5696C20.8706 21.6296 20.9929 21.7312 21.079 21.8616C21.165 21.9919 21.2109 22.1452 21.2109 22.302C21.2109 22.5122 21.1284 22.7138 20.9816 22.8625C20.8347 23.0112 20.6356 23.0947 20.4279 23.0947ZM21.5319 20.6664C21.405 20.6664 21.2808 20.6283 21.1752 20.5568C21.0697 20.4854 20.9874 20.3839 20.9388 20.2651C20.8902 20.1464 20.8774 20.0157 20.9022 19.8896C20.927 19.7635 20.9881 19.6477 21.0779 19.5568C21.1677 19.4659 21.2821 19.404 21.4067 19.3789C21.5312 19.3538 21.6603 19.3667 21.7776 19.4159C21.895 19.4651 21.9952 19.5484 22.0658 19.6553C22.1363 19.7622 22.174 19.8878 22.174 20.0164C22.174 20.1026 22.1571 20.188 22.1241 20.2676C22.0912 20.3472 22.043 20.4193 21.9823 20.4798C21.9215 20.5403 21.8495 20.5879 21.7704 20.62C21.6913 20.652 21.6067 20.6678 21.5215 20.6664H21.5319ZM22.7482 18.3385C22.6449 18.3385 22.544 18.3075 22.4582 18.2495C22.3723 18.1914 22.3054 18.1089 22.2659 18.0123C22.2264 17.9157 22.2161 17.8095 22.2362 17.707C22.2564 17.6045 22.3061 17.5103 22.3791 17.4364C22.4521 17.3625 22.5451 17.3122 22.6463 17.2918C22.7476 17.2714 22.8526 17.2818 22.9479 17.3218C23.0433 17.3618 23.1249 17.4296 23.1822 17.5165C23.2396 17.6034 23.2702 17.7055 23.2702 17.8101C23.2702 17.8804 23.2564 17.95 23.2295 18.0148C23.2026 18.0796 23.1632 18.1383 23.1136 18.1875C23.064 18.2367 23.0053 18.2754 22.9407 18.3014C22.8762 18.3273 22.8072 18.3399 22.7377 18.3385H22.7482Z" fill="#0087CE"/>
<path d="M45.8556 8.03366C45.3336 6.78385 44.4254 6.15234 43.1935 6.15234H42.9481C41.6953 6.15234 40.7897 6.7865 40.2572 8.03366L33.6227 23.5704C33.4672 23.8951 33.3784 24.2484 33.3617 24.6088C33.3564 24.908 33.4095 25.2053 33.5179 25.4837C33.6262 25.7621 33.7878 26.0161 33.9933 26.2312C34.1927 26.449 34.4353 26.6218 34.7051 26.7383C34.9749 26.8549 35.266 26.9126 35.5593 26.9076C36.5772 26.9076 37.308 26.3976 37.7334 25.3883L38.9992 22.31H47.0145L48.2229 25.2562C48.6822 26.3554 49.4417 26.9129 50.4779 26.9129C50.7783 26.9186 51.0765 26.8601 51.3531 26.7413C51.6297 26.6225 51.8784 26.446 52.083 26.2233C52.2933 26.0023 52.4585 25.7416 52.5691 25.4559C52.6797 25.1703 52.7336 24.8654 52.7277 24.5586C52.7144 24.2187 52.6327 23.8851 52.4876 23.5783L45.8556 8.03366ZM45.2449 17.9396H40.7584L43.0003 12.3908L45.2449 17.9396Z" fill="#3C4A5E"/>
<path d="M66.0594 10.9169C65.7531 10.9145 65.4495 10.9753 65.1672 11.0957C64.885 11.2161 64.6299 11.3935 64.4177 11.6171C64.1111 11.9205 63.8949 12.3051 63.7939 12.7269C63.2088 12.1169 62.5084 11.6322 61.7345 11.3018C60.9606 10.9713 60.129 10.8018 59.2891 10.8033C58.4054 10.7918 57.5285 10.9614 56.7113 11.302C55.894 11.6426 55.1533 12.147 54.5337 12.785C53.2287 14.1062 52.5527 15.895 52.5527 18.1225V18.1779C52.5527 20.4028 53.2157 22.1995 54.5207 23.5127C55.1413 24.153 55.8841 24.6588 56.7038 24.9994C57.5235 25.3401 58.4031 25.5085 59.2891 25.4945C60.2624 25.5223 61.2271 25.3024 62.0948 24.855C62.7262 24.4962 63.2964 24.0367 63.7835 23.4942C63.7835 26.0837 62.5098 27.3441 59.8868 27.3441C58.5336 27.3468 57.1967 27.0464 55.9718 26.4642C55.7245 26.3562 55.4581 26.3005 55.1888 26.3004C54.933 26.2989 54.6797 26.3501 54.4441 26.451C54.2085 26.5518 53.9957 26.7002 53.8186 26.887C53.6304 27.0725 53.4817 27.295 53.3816 27.5408C53.2815 27.7866 53.2322 28.0506 53.2365 28.3164C53.2365 29.2228 53.6855 29.8648 54.5702 30.2295C56.2948 30.9354 58.1388 31.2944 59.999 31.2864C62.943 31.2864 65.1198 30.5756 66.4691 29.1726C67.7454 27.8514 68.3927 25.7825 68.3927 23.0345V13.3293C68.3987 13.0115 68.3406 12.6958 68.2222 12.4014C68.1037 12.1071 67.9273 11.8402 67.7036 11.6171C67.4911 11.3932 67.2356 11.2156 66.9529 11.0952C66.6701 10.9748 66.3661 10.9141 66.0594 10.9169ZM63.7808 18.1225V18.1779C63.7959 18.609 63.7201 19.0383 63.5585 19.4374C63.397 19.8365 63.1534 20.1962 62.8439 20.4926C62.1977 21.0756 61.3629 21.3988 60.4974 21.4013C59.6318 21.4037 58.7953 21.0852 58.1459 20.5058C57.8373 20.206 57.5953 19.8432 57.436 19.4413C57.2767 19.0395 57.2037 18.6079 57.222 18.1753V18.1225C57.2067 17.6919 57.2814 17.263 57.441 16.8637C57.6007 16.4644 57.8418 16.1037 58.1485 15.8052C58.4591 15.5007 58.8273 15.2629 59.231 15.1063C59.6347 14.9496 60.0655 14.8773 60.4975 14.8936C60.9292 14.88 61.3593 14.9536 61.7626 15.1101C62.1659 15.2666 62.5344 15.5029 62.8465 15.8052C63.1558 16.1021 63.3992 16.4623 63.5603 16.8619C63.7214 17.2614 63.7966 17.6912 63.7808 18.1225Z" fill="#3C4A5E"/>
<path d="M79.3438 11.5822C79.127 11.3575 78.8655 11.1822 78.5766 11.0678C78.2876 10.9535 77.978 10.9027 77.6682 10.919C77.3273 10.9314 76.9929 11.0173 76.6873 11.1708C76.3817 11.3244 76.112 11.5421 75.896 11.8094C75.5958 12.1474 75.3332 12.5178 75.113 12.9139C75.0399 12.4251 74.8151 11.9726 74.471 11.6218C74.2542 11.3999 73.9961 11.2237 73.7116 11.1034C73.4271 10.9832 73.1219 10.9213 72.8136 10.9213C72.5053 10.9213 72.2001 10.9832 71.9156 11.1034C71.6312 11.2237 71.3731 11.3999 71.1563 11.6218C70.9375 11.8472 70.7652 12.1145 70.6496 12.408C70.534 12.7015 70.4773 13.0154 70.4829 13.3314V24.4978C70.4765 24.8138 70.5327 25.128 70.6484 25.4217C70.7641 25.7153 70.9368 25.9825 71.1563 26.2073C71.3731 26.4293 71.6312 26.6054 71.9156 26.7257C72.2001 26.8459 72.5053 26.9079 72.8136 26.9079C73.1219 26.9079 73.4271 26.8459 73.7116 26.7257C73.9961 26.6054 74.2542 26.4293 74.471 26.2073C74.6898 25.982 74.862 25.7147 74.9776 25.4212C75.0933 25.1276 75.1499 24.8137 75.1443 24.4978V20.5C75.1443 17.6648 76.144 16.0424 78.2058 15.543C78.6922 15.4292 79.1306 15.1629 79.4586 14.782C79.8014 14.3608 79.9789 13.8265 79.9571 13.2812C79.9798 12.6555 79.7596 12.0457 79.3438 11.5822Z" fill="#3C4A5E"/>
<path d="M93.6131 13.1521C92.0732 11.5931 90.121 10.8031 87.8111 10.8031C86.7324 10.7771 85.6596 10.973 84.6578 11.3791C83.656 11.7851 82.7461 12.3928 81.9831 13.1653C81.2228 13.9141 80.6221 14.8128 80.2181 15.8058C79.8141 16.7987 79.6153 17.865 79.6341 18.9387V18.9942C79.615 20.0595 79.8109 21.1175 80.2099 22.1035C80.6088 23.0894 81.2025 23.9825 81.9544 24.728C83.4942 26.2869 85.4465 27.077 87.7563 27.077C88.8351 27.1028 89.9078 26.9068 90.9096 26.5008C91.9113 26.0948 92.8213 25.4872 93.5844 24.7148C94.3446 23.9658 94.9452 23.0672 95.3492 22.0742C95.7532 21.0813 95.952 20.0151 95.9334 18.9414V18.8859C95.9524 17.8206 95.7564 16.7626 95.3574 15.7767C94.9584 14.7908 94.3649 13.8977 93.6131 13.1521ZM84.2407 18.8832C84.2101 17.8745 84.5548 16.891 85.2064 16.1273C85.5232 15.7638 85.9165 15.4768 86.3573 15.2874C86.7982 15.0981 87.2753 15.0113 87.7537 15.0334C88.2376 15.017 88.719 15.1105 89.1625 15.3071C89.6061 15.5037 90.0004 15.7984 90.3167 16.1696C90.9847 16.9314 91.3445 17.9202 91.3242 18.9387V18.9942C91.3545 20.0028 91.0099 20.9863 90.3585 21.7501C90.0416 22.1135 89.6482 22.4004 89.2074 22.5897C88.7666 22.779 88.2895 22.8659 87.8111 22.844C87.3272 22.8606 86.8458 22.7672 86.4022 22.5706C85.9587 22.3739 85.5643 22.0791 85.2481 21.7078C84.5799 20.9462 84.2201 19.9572 84.2407 18.9387V18.8832Z" fill="#3C4A5E"/>
</g>
<defs>
<clipPath id="clip0_729_3519">
<rect width="172" height="34" fill="white"/>
</clipPath>
</defs>
</svg>
